<svg xmlns="http://www.w3.org/2000/svg" width="900" height="620" viewBox="0 0 900 620">
<rect width="100%" height="100%" fill="#f8fafc"/>
<text x="40" y="42" font-size="24" font-family="Arial" font-weight="700" fill="#0f172a">Top Suspicious Shared-Infrastructure Component</text>
<text x="40" y="72" font-size="14" font-family="Arial" fill="#475569">Dark outlines are injected fraud-ring users. Warmer fills indicate higher graph risk.</text>
<g font-family="Arial">
<line x1="670.0" y1="310.0" x2="667.3" y2="344.4" stroke="#9aa4b2" stroke-width="1" opacity="0.25" />
<line x1="670.0" y1="310.0" x2="659.2" y2="378.0" stroke="#9aa4b2" stroke-width="1" opacity="0.25" />
<line x1="670.0" y1="310.0" x2="646.0" y2="409.9" stroke="#9aa4b2" stroke-width="1" opacity="0.25" />
<line x1="670.0" y1="310.0" x2="628.0" y2="439.3" stroke="#9aa4b2" stroke-width="1" opacity="0.25" />
<line x1="670.0" y1="310.0" x2="605.6" y2="465.6" stroke="#9aa4b2" stroke-width="1" opacity="0.25" />
<line x1="670.0" y1="310.0" x2="579.3" y2="488.0" stroke="#9aa4b2" stroke-width="1" opacity="0.25" />
<line x1="670.0" y1="310.0" x2="549.9" y2="506.0" stroke="#9aa4b2" stroke-width="1" opacity="0.25" />
<line x1="670.0" y1="310.0" x2="518.0" y2="519.2" stroke="#9aa4b2" stroke-width="1" opacity="0.25" />
<line x1="670.0" y1="310.0" x2="484.4" y2="527.3" stroke="#9aa4b2" stroke-width="1" opacity="0.25" />
<line x1="670.0" y1="310.0" x2="450.0" y2="530.0" stroke="#9aa4b2" stroke-width="1" opacity="0.25" />
<line x1="670.0" y1="310.0" x2="415.6" y2="527.3" stroke="#9aa4b2" stroke-width="1" opacity="0.25" />
<line x1="670.0" y1="310.0" x2="382.0" y2="519.2" stroke="#9aa4b2" stroke-width="1" opacity="0.25" />
<line x1="670.0" y1="310.0" x2="350.1" y2="506.0" stroke="#9aa4b2" stroke-width="1" opacity="0.25" />
<line x1="670.0" y1="310.0" x2="320.7" y2="488.0" stroke="#9aa4b2" stroke-width="1" opacity="0.25" />
<line x1="670.0" y1="310.0" x2="294.4" y2="465.6" stroke="#9aa4b2" stroke-width="1" opacity="0.25" />
<line x1="670.0" y1="310.0" x2="272.0" y2="439.3" stroke="#9aa4b2" stroke-width="1" opacity="0.25" />
<line x1="670.0" y1="310.0" x2="254.0" y2="409.9" stroke="#9aa4b2" stroke-width="1" opacity="0.25" />
<line x1="670.0" y1="310.0" x2="240.8" y2="378.0" stroke="#9aa4b2" stroke-width="1" opacity="0.25" />
<line x1="670.0" y1="310.0" x2="232.7" y2="344.4" stroke="#9aa4b2" stroke-width="1" opacity="0.25" />
<line x1="670.0" y1="310.0" x2="230.0" y2="310.0" stroke="#9aa4b2" stroke-width="1" opacity="0.25" />
<line x1="670.0" y1="310.0" x2="232.7" y2="275.6" stroke="#9aa4b2" stroke-width="1" opacity="0.25" />
<line x1="670.0" y1="310.0" x2="240.8" y2="242.0" stroke="#9aa4b2" stroke-width="1" opacity="0.25" />
<line x1="670.0" y1="310.0" x2="254.0" y2="210.1" stroke="#9aa4b2" stroke-width="1" opacity="0.25" />
<line x1="670.0" y1="310.0" x2="272.0" y2="180.7" stroke="#9aa4b2" stroke-width="1" opacity="0.25" />
<line x1="670.0" y1="310.0" x2="294.4" y2="154.4" stroke="#9aa4b2" stroke-width="1" opacity="0.25" />
<line x1="670.0" y1="310.0" x2="320.7" y2="132.0" stroke="#9aa4b2" stroke-width="1" opacity="0.25" />
<line x1="670.0" y1="310.0" x2="350.1" y2="114.0" stroke="#9aa4b2" stroke-width="1" opacity="0.25" />
<line x1="670.0" y1="310.0" x2="382.0" y2="100.8" stroke="#9aa4b2" stroke-width="1" opacity="0.25" />
<line x1="670.0" y1="310.0" x2="415.6" y2="92.7" stroke="#9aa4b2" stroke-width="1" opacity="0.25" />
<line x1="670.0" y1="310.0" x2="450.0" y2="90.0" stroke="#9aa4b2" stroke-width="1" opacity="0.25" />
<line x1="670.0" y1="310.0" x2="484.4" y2="92.7" stroke="#9aa4b2" stroke-width="1" opacity="0.25" />
<line x1="670.0" y1="310.0" x2="518.0" y2="100.8" stroke="#9aa4b2" stroke-width="1" opacity="0.25" />
<line x1="670.0" y1="310.0" x2="549.9" y2="114.0" stroke="#9aa4b2" stroke-width="1" opacity="0.25" />
<line x1="670.0" y1="310.0" x2="579.3" y2="132.0" stroke="#9aa4b2" stroke-width="1" opacity="0.25" />
<line x1="670.0" y1="310.0" x2="605.6" y2="154.4" stroke="#9aa4b2" stroke-width="1" opacity="0.25" />
<line x1="670.0" y1="310.0" x2="628.0" y2="180.7" stroke="#9aa4b2" stroke-width="1" opacity="0.25" />
<line x1="670.0" y1="310.0" x2="646.0" y2="210.1" stroke="#9aa4b2" stroke-width="1" opacity="0.25" />
<line x1="670.0" y1="310.0" x2="659.2" y2="242.0" stroke="#9aa4b2" stroke-width="1" opacity="0.25" />
<line x1="670.0" y1="310.0" x2="667.3" y2="275.6" stroke="#9aa4b2" stroke-width="1" opacity="0.25" />
<line x1="628.0" y1="439.3" x2="605.6" y2="465.6" stroke="#9aa4b2" stroke-width="1" opacity="0.25" />
<line x1="628.0" y1="439.3" x2="579.3" y2="488.0" stroke="#9aa4b2" stroke-width="1" opacity="0.25" />
<line x1="628.0" y1="439.3" x2="549.9" y2="506.0" stroke="#9aa4b2" stroke-width="1" opacity="0.25" />
<line x1="628.0" y1="439.3" x2="518.0" y2="519.2" stroke="#9aa4b2" stroke-width="1" opacity="0.25" />
<line x1="628.0" y1="439.3" x2="484.4" y2="527.3" stroke="#9aa4b2" stroke-width="1" opacity="0.25" />
<line x1="628.0" y1="439.3" x2="450.0" y2="530.0" stroke="#9aa4b2" stroke-width="1" opacity="0.25" />
<line x1="628.0" y1="439.3" x2="415.6" y2="527.3" stroke="#9aa4b2" stroke-width="1" opacity="0.25" />
<line x1="628.0" y1="439.3" x2="382.0" y2="519.2" stroke="#9aa4b2" stroke-width="1" opacity="0.25" />
<line x1="628.0" y1="439.3" x2="350.1" y2="506.0" stroke="#9aa4b2" stroke-width="1" opacity="0.25" />
<line x1="628.0" y1="439.3" x2="320.7" y2="488.0" stroke="#9aa4b2" stroke-width="1" opacity="0.25" />
<line x1="628.0" y1="439.3" x2="294.4" y2="465.6" stroke="#9aa4b2" stroke-width="1" opacity="0.25" />
<line x1="628.0" y1="439.3" x2="272.0" y2="439.3" stroke="#9aa4b2" stroke-width="1" opacity="0.25" />
<line x1="628.0" y1="439.3" x2="254.0" y2="409.9" stroke="#9aa4b2" stroke-width="1" opacity="0.25" />
<line x1="628.0" y1="439.3" x2="240.8" y2="378.0" stroke="#9aa4b2" stroke-width="1" opacity="0.25" />
<line x1="628.0" y1="439.3" x2="232.7" y2="344.4" stroke="#9aa4b2" stroke-width="1" opacity="0.25" />
<line x1="628.0" y1="439.3" x2="230.0" y2="310.0" stroke="#9aa4b2" stroke-width="1" opacity="0.25" />
<line x1="628.0" y1="439.3" x2="232.7" y2="275.6" stroke="#9aa4b2" stroke-width="1" opacity="0.25" />
<line x1="628.0" y1="439.3" x2="240.8" y2="242.0" stroke="#9aa4b2" stroke-width="1" opacity="0.25" />
<line x1="628.0" y1="439.3" x2="254.0" y2="210.1" stroke="#9aa4b2" stroke-width="1" opacity="0.25" />
<line x1="628.0" y1="439.3" x2="272.0" y2="180.7" stroke="#9aa4b2" stroke-width="1" opacity="0.25" />
<line x1="628.0" y1="439.3" x2="294.4" y2="154.4" stroke="#9aa4b2" stroke-width="1" opacity="0.25" />
<line x1="628.0" y1="439.3" x2="320.7" y2="132.0" stroke="#9aa4b2" stroke-width="1" opacity="0.25" />
<line x1="628.0" y1="439.3" x2="350.1" y2="114.0" stroke="#9aa4b2" stroke-width="1" opacity="0.25" />
<line x1="628.0" y1="439.3" x2="382.0" y2="100.8" stroke="#9aa4b2" stroke-width="1" opacity="0.25" />
<line x1="628.0" y1="439.3" x2="415.6" y2="92.7" stroke="#9aa4b2" stroke-width="1" opacity="0.25" />
<line x1="628.0" y1="439.3" x2="450.0" y2="90.0" stroke="#9aa4b2" stroke-width="1" opacity="0.25" />
<line x1="628.0" y1="439.3" x2="484.4" y2="92.7" stroke="#9aa4b2" stroke-width="1" opacity="0.25" />
<line x1="628.0" y1="439.3" x2="518.0" y2="100.8" stroke="#9aa4b2" stroke-width="1" opacity="0.25" />
<line x1="628.0" y1="439.3" x2="549.9" y2="114.0" stroke="#9aa4b2" stroke-width="1" opacity="0.25" />
<line x1="628.0" y1="439.3" x2="579.3" y2="132.0" stroke="#9aa4b2" stroke-width="1" opacity="0.25" />
<line x1="628.0" y1="439.3" x2="605.6" y2="154.4" stroke="#9aa4b2" stroke-width="1" opacity="0.25" />
<line x1="628.0" y1="439.3" x2="628.0" y2="180.7" stroke="#9aa4b2" stroke-width="1" opacity="0.25" />
<line x1="628.0" y1="439.3" x2="646.0" y2="210.1" stroke="#9aa4b2" stroke-width="1" opacity="0.25" />
<line x1="628.0" y1="439.3" x2="659.2" y2="242.0" stroke="#9aa4b2" stroke-width="1" opacity="0.25" />
<line x1="628.0" y1="439.3" x2="667.3" y2="275.6" stroke="#9aa4b2" stroke-width="1" opacity="0.25" />
<line x1="549.9" y1="506.0" x2="518.0" y2="519.2" stroke="#9aa4b2" stroke-width="1" opacity="0.25" />
<line x1="549.9" y1="506.0" x2="484.4" y2="527.3" stroke="#9aa4b2" stroke-width="1" opacity="0.25" />
<line x1="549.9" y1="506.0" x2="450.0" y2="530.0" stroke="#9aa4b2" stroke-width="1" opacity="0.25" />
<line x1="549.9" y1="506.0" x2="415.6" y2="527.3" stroke="#9aa4b2" stroke-width="1" opacity="0.25" />
<line x1="549.9" y1="506.0" x2="382.0" y2="519.2" stroke="#9aa4b2" stroke-width="1" opacity="0.25" />
<line x1="549.9" y1="506.0" x2="350.1" y2="506.0" stroke="#9aa4b2" stroke-width="1" opacity="0.25" />
<line x1="549.9" y1="506.0" x2="320.7" y2="488.0" stroke="#9aa4b2" stroke-width="1" opacity="0.25" />
<line x1="549.9" y1="506.0" x2="294.4" y2="465.6" stroke="#9aa4b2" stroke-width="1" opacity="0.25" />
<line x1="549.9" y1="506.0" x2="272.0" y2="439.3" stroke="#9aa4b2" stroke-width="1" opacity="0.25" />
<line x1="549.9" y1="506.0" x2="254.0" y2="409.9" stroke="#9aa4b2" stroke-width="1" opacity="0.25" />
<line x1="549.9" y1="506.0" x2="240.8" y2="378.0" stroke="#9aa4b2" stroke-width="1" opacity="0.25" />
<line x1="549.9" y1="506.0" x2="232.7" y2="344.4" stroke="#9aa4b2" stroke-width="1" opacity="0.25" />
<line x1="549.9" y1="506.0" x2="230.0" y2="310.0" stroke="#9aa4b2" stroke-width="1" opacity="0.25" />
<line x1="549.9" y1="506.0" x2="232.7" y2="275.6" stroke="#9aa4b2" stroke-width="1" opacity="0.25" />
<line x1="549.9" y1="506.0" x2="240.8" y2="242.0" stroke="#9aa4b2" stroke-width="1" opacity="0.25" />
<line x1="549.9" y1="506.0" x2="254.0" y2="210.1" stroke="#9aa4b2" stroke-width="1" opacity="0.25" />
<line x1="549.9" y1="506.0" x2="272.0" y2="180.7" stroke="#9aa4b2" stroke-width="1" opacity="0.25" />
<line x1="549.9" y1="506.0" x2="294.4" y2="154.4" stroke="#9aa4b2" stroke-width="1" opacity="0.25" />
<line x1="549.9" y1="506.0" x2="320.7" y2="132.0" stroke="#9aa4b2" stroke-width="1" opacity="0.25" />
<line x1="549.9" y1="506.0" x2="350.1" y2="114.0" stroke="#9aa4b2" stroke-width="1" opacity="0.25" />
<line x1="549.9" y1="506.0" x2="382.0" y2="100.8" stroke="#9aa4b2" stroke-width="1" opacity="0.25" />
<line x1="549.9" y1="506.0" x2="415.6" y2="92.7" stroke="#9aa4b2" stroke-width="1" opacity="0.25" />
<line x1="549.9" y1="506.0" x2="450.0" y2="90.0" stroke="#9aa4b2" stroke-width="1" opacity="0.25" />
<line x1="549.9" y1="506.0" x2="484.4" y2="92.7" stroke="#9aa4b2" stroke-width="1" opacity="0.25" />
<line x1="549.9" y1="506.0" x2="518.0" y2="100.8" stroke="#9aa4b2" stroke-width="1" opacity="0.25" />
<line x1="549.9" y1="506.0" x2="549.9" y2="114.0" stroke="#9aa4b2" stroke-width="1" opacity="0.25" />
<line x1="549.9" y1="506.0" x2="579.3" y2="132.0" stroke="#9aa4b2" stroke-width="1" opacity="0.25" />
<line x1="549.9" y1="506.0" x2="605.6" y2="154.4" stroke="#9aa4b2" stroke-width="1" opacity="0.25" />
<line x1="549.9" y1="506.0" x2="628.0" y2="180.7" stroke="#9aa4b2" stroke-width="1" opacity="0.25" />
<line x1="549.9" y1="506.0" x2="646.0" y2="210.1" stroke="#9aa4b2" stroke-width="1" opacity="0.25" />
<line x1="549.9" y1="506.0" x2="659.2" y2="242.0" stroke="#9aa4b2" stroke-width="1" opacity="0.25" />
<line x1="549.9" y1="506.0" x2="667.3" y2="275.6" stroke="#9aa4b2" stroke-width="1" opacity="0.25" />
<line x1="320.7" y1="488.0" x2="294.4" y2="465.6" stroke="#9aa4b2" stroke-width="1" opacity="0.25" />
<line x1="320.7" y1="488.0" x2="272.0" y2="439.3" stroke="#9aa4b2" stroke-width="1" opacity="0.25" />
<line x1="320.7" y1="488.0" x2="254.0" y2="409.9" stroke="#9aa4b2" stroke-width="1" opacity="0.25" />
<line x1="320.7" y1="488.0" x2="240.8" y2="378.0" stroke="#9aa4b2" stroke-width="1" opacity="0.25" />
<line x1="320.7" y1="488.0" x2="232.7" y2="344.4" stroke="#9aa4b2" stroke-width="1" opacity="0.25" />
<line x1="320.7" y1="488.0" x2="230.0" y2="310.0" stroke="#9aa4b2" stroke-width="1" opacity="0.25" />
<line x1="320.7" y1="488.0" x2="232.7" y2="275.6" stroke="#9aa4b2" stroke-width="1" opacity="0.25" />
<line x1="320.7" y1="488.0" x2="240.8" y2="242.0" stroke="#9aa4b2" stroke-width="1" opacity="0.25" />
<line x1="320.7" y1="488.0" x2="254.0" y2="210.1" stroke="#9aa4b2" stroke-width="1" opacity="0.25" />
<line x1="320.7" y1="488.0" x2="272.0" y2="180.7" stroke="#9aa4b2" stroke-width="1" opacity="0.25" />
<line x1="320.7" y1="488.0" x2="294.4" y2="154.4" stroke="#9aa4b2" stroke-width="1" opacity="0.25" />
<line x1="320.7" y1="488.0" x2="320.7" y2="132.0" stroke="#9aa4b2" stroke-width="1" opacity="0.25" />
<line x1="320.7" y1="488.0" x2="350.1" y2="114.0" stroke="#9aa4b2" stroke-width="1" opacity="0.25" />
<line x1="320.7" y1="488.0" x2="382.0" y2="100.8" stroke="#9aa4b2" stroke-width="1" opacity="0.25" />
<line x1="320.7" y1="488.0" x2="415.6" y2="92.7" stroke="#9aa4b2" stroke-width="1" opacity="0.25" />
<line x1="320.7" y1="488.0" x2="450.0" y2="90.0" stroke="#9aa4b2" stroke-width="1" opacity="0.25" />
<line x1="320.7" y1="488.0" x2="484.4" y2="92.7" stroke="#9aa4b2" stroke-width="1" opacity="0.25" />
<line x1="320.7" y1="488.0" x2="518.0" y2="100.8" stroke="#9aa4b2" stroke-width="1" opacity="0.25" />
<line x1="320.7" y1="488.0" x2="549.9" y2="114.0" stroke="#9aa4b2" stroke-width="1" opacity="0.25" />
<line x1="320.7" y1="488.0" x2="579.3" y2="132.0" stroke="#9aa4b2" stroke-width="1" opacity="0.25" />
<line x1="320.7" y1="488.0" x2="605.6" y2="154.4" stroke="#9aa4b2" stroke-width="1" opacity="0.25" />
<line x1="320.7" y1="488.0" x2="628.0" y2="180.7" stroke="#9aa4b2" stroke-width="1" opacity="0.25" />
<line x1="320.7" y1="488.0" x2="646.0" y2="210.1" stroke="#9aa4b2" stroke-width="1" opacity="0.25" />
<line x1="320.7" y1="488.0" x2="659.2" y2="242.0" stroke="#9aa4b2" stroke-width="1" opacity="0.25" />
<line x1="320.7" y1="488.0" x2="667.3" y2="275.6" stroke="#9aa4b2" stroke-width="1" opacity="0.25" />
<line x1="294.4" y1="465.6" x2="272.0" y2="439.3" stroke="#9aa4b2" stroke-width="1" opacity="0.25" />
<line x1="294.4" y1="465.6" x2="254.0" y2="409.9" stroke="#9aa4b2" stroke-width="1" opacity="0.25" />
<line x1="294.4" y1="465.6" x2="240.8" y2="378.0" stroke="#9aa4b2" stroke-width="1" opacity="0.25" />
<line x1="294.4" y1="465.6" x2="232.7" y2="344.4" stroke="#9aa4b2" stroke-width="1" opacity="0.25" />
<line x1="294.4" y1="465.6" x2="230.0" y2="310.0" stroke="#9aa4b2" stroke-width="1" opacity="0.25" />
<line x1="294.4" y1="465.6" x2="232.7" y2="275.6" stroke="#9aa4b2" stroke-width="1" opacity="0.25" />
<line x1="294.4" y1="465.6" x2="240.8" y2="242.0" stroke="#9aa4b2" stroke-width="1" opacity="0.25" />
<line x1="294.4" y1="465.6" x2="254.0" y2="210.1" stroke="#9aa4b2" stroke-width="1" opacity="0.25" />
<line x1="294.4" y1="465.6" x2="272.0" y2="180.7" stroke="#9aa4b2" stroke-width="1" opacity="0.25" />
<line x1="294.4" y1="465.6" x2="294.4" y2="154.4" stroke="#9aa4b2" stroke-width="1" opacity="0.25" />
<line x1="294.4" y1="465.6" x2="320.7" y2="132.0" stroke="#9aa4b2" stroke-width="1" opacity="0.25" />
<line x1="294.4" y1="465.6" x2="350.1" y2="114.0" stroke="#9aa4b2" stroke-width="1" opacity="0.25" />
<line x1="294.4" y1="465.6" x2="382.0" y2="100.8" stroke="#9aa4b2" stroke-width="1" opacity="0.25" />
<line x1="294.4" y1="465.6" x2="415.6" y2="92.7" stroke="#9aa4b2" stroke-width="1" opacity="0.25" />
<line x1="294.4" y1="465.6" x2="450.0" y2="90.0" stroke="#9aa4b2" stroke-width="1" opacity="0.25" />
<line x1="294.4" y1="465.6" x2="484.4" y2="92.7" stroke="#9aa4b2" stroke-width="1" opacity="0.25" />
<line x1="294.4" y1="465.6" x2="518.0" y2="100.8" stroke="#9aa4b2" stroke-width="1" opacity="0.25" />
<line x1="294.4" y1="465.6" x2="549.9" y2="114.0" stroke="#9aa4b2" stroke-width="1" opacity="0.25" />
<line x1="294.4" y1="465.6" x2="579.3" y2="132.0" stroke="#9aa4b2" stroke-width="1" opacity="0.25" />
<line x1="294.4" y1="465.6" x2="605.6" y2="154.4" stroke="#9aa4b2" stroke-width="1" opacity="0.25" />
<line x1="294.4" y1="465.6" x2="628.0" y2="180.7" stroke="#9aa4b2" stroke-width="1" opacity="0.25" />
<line x1="294.4" y1="465.6" x2="646.0" y2="210.1" stroke="#9aa4b2" stroke-width="1" opacity="0.25" />
<line x1="294.4" y1="465.6" x2="659.2" y2="242.0" stroke="#9aa4b2" stroke-width="1" opacity="0.25" />
<line x1="294.4" y1="465.6" x2="667.3" y2="275.6" stroke="#9aa4b2" stroke-width="1" opacity="0.25" />
<line x1="232.7" y1="275.6" x2="240.8" y2="242.0" stroke="#9aa4b2" stroke-width="1" opacity="0.25" />
<line x1="232.7" y1="275.6" x2="254.0" y2="210.1" stroke="#9aa4b2" stroke-width="1" opacity="0.25" />
<line x1="232.7" y1="275.6" x2="272.0" y2="180.7" stroke="#9aa4b2" stroke-width="1" opacity="0.25" />
<line x1="232.7" y1="275.6" x2="294.4" y2="154.4" stroke="#9aa4b2" stroke-width="1" opacity="0.25" />
<line x1="232.7" y1="275.6" x2="320.7" y2="132.0" stroke="#9aa4b2" stroke-width="1" opacity="0.25" />
<line x1="232.7" y1="275.6" x2="350.1" y2="114.0" stroke="#9aa4b2" stroke-width="1" opacity="0.25" />
<line x1="232.7" y1="275.6" x2="382.0" y2="100.8" stroke="#9aa4b2" stroke-width="1" opacity="0.25" />
<line x1="232.7" y1="275.6" x2="415.6" y2="92.7" stroke="#9aa4b2" stroke-width="1" opacity="0.25" />
<line x1="232.7" y1="275.6" x2="450.0" y2="90.0" stroke="#9aa4b2" stroke-width="1" opacity="0.25" />
<line x1="232.7" y1="275.6" x2="484.4" y2="92.7" stroke="#9aa4b2" stroke-width="1" opacity="0.25" />
<line x1="232.7" y1="275.6" x2="518.0" y2="100.8" stroke="#9aa4b2" stroke-width="1" opacity="0.25" />
<line x1="232.7" y1="275.6" x2="549.9" y2="114.0" stroke="#9aa4b2" stroke-width="1" opacity="0.25" />
<line x1="232.7" y1="275.6" x2="579.3" y2="132.0" stroke="#9aa4b2" stroke-width="1" opacity="0.25" />
<line x1="232.7" y1="275.6" x2="605.6" y2="154.4" stroke="#9aa4b2" stroke-width="1" opacity="0.25" />
<line x1="232.7" y1="275.6" x2="628.0" y2="180.7" stroke="#9aa4b2" stroke-width="1" opacity="0.25" />
<line x1="232.7" y1="275.6" x2="646.0" y2="210.1" stroke="#9aa4b2" stroke-width="1" opacity="0.25" />
<line x1="232.7" y1="275.6" x2="659.2" y2="242.0" stroke="#9aa4b2" stroke-width="1" opacity="0.25" />
<line x1="232.7" y1="275.6" x2="667.3" y2="275.6" stroke="#9aa4b2" stroke-width="1" opacity="0.25" />
<line x1="320.7" y1="132.0" x2="350.1" y2="114.0" stroke="#9aa4b2" stroke-width="1" opacity="0.25" />
<line x1="320.7" y1="132.0" x2="382.0" y2="100.8" stroke="#9aa4b2" stroke-width="1" opacity="0.25" />
<line x1="320.7" y1="132.0" x2="415.6" y2="92.7" stroke="#9aa4b2" stroke-width="1" opacity="0.25" />
<line x1="320.7" y1="132.0" x2="450.0" y2="90.0" stroke="#9aa4b2" stroke-width="1" opacity="0.25" />
<line x1="320.7" y1="132.0" x2="484.4" y2="92.7" stroke="#9aa4b2" stroke-width="1" opacity="0.25" />
<line x1="320.7" y1="132.0" x2="518.0" y2="100.8" stroke="#9aa4b2" stroke-width="1" opacity="0.25" />
<line x1="320.7" y1="132.0" x2="549.9" y2="114.0" stroke="#9aa4b2" stroke-width="1" opacity="0.25" />
<line x1="320.7" y1="132.0" x2="579.3" y2="132.0" stroke="#9aa4b2" stroke-width="1" opacity="0.25" />
<line x1="320.7" y1="132.0" x2="605.6" y2="154.4" stroke="#9aa4b2" stroke-width="1" opacity="0.25" />
<line x1="320.7" y1="132.0" x2="628.0" y2="180.7" stroke="#9aa4b2" stroke-width="1" opacity="0.25" />
<line x1="320.7" y1="132.0" x2="646.0" y2="210.1" stroke="#9aa4b2" stroke-width="1" opacity="0.25" />
<line x1="320.7" y1="132.0" x2="659.2" y2="242.0" stroke="#9aa4b2" stroke-width="1" opacity="0.25" />
<line x1="320.7" y1="132.0" x2="667.3" y2="275.6" stroke="#9aa4b2" stroke-width="1" opacity="0.25" />
<line x1="382.0" y1="100.8" x2="415.6" y2="92.7" stroke="#9aa4b2" stroke-width="1" opacity="0.25" />
<line x1="382.0" y1="100.8" x2="450.0" y2="90.0" stroke="#9aa4b2" stroke-width="1" opacity="0.25" />
<line x1="382.0" y1="100.8" x2="484.4" y2="92.7" stroke="#9aa4b2" stroke-width="1" opacity="0.25" />
<line x1="382.0" y1="100.8" x2="518.0" y2="100.8" stroke="#9aa4b2" stroke-width="1" opacity="0.25" />
<line x1="382.0" y1="100.8" x2="549.9" y2="114.0" stroke="#9aa4b2" stroke-width="1" opacity="0.25" />
<line x1="382.0" y1="100.8" x2="579.3" y2="132.0" stroke="#9aa4b2" stroke-width="1" opacity="0.25" />
<line x1="382.0" y1="100.8" x2="605.6" y2="154.4" stroke="#9aa4b2" stroke-width="1" opacity="0.25" />
<line x1="382.0" y1="100.8" x2="628.0" y2="180.7" stroke="#9aa4b2" stroke-width="1" opacity="0.25" />
<line x1="382.0" y1="100.8" x2="646.0" y2="210.1" stroke="#9aa4b2" stroke-width="1" opacity="0.25" />
<line x1="382.0" y1="100.8" x2="659.2" y2="242.0" stroke="#9aa4b2" stroke-width="1" opacity="0.25" />
<line x1="382.0" y1="100.8" x2="667.3" y2="275.6" stroke="#9aa4b2" stroke-width="1" opacity="0.25" />
<line x1="605.6" y1="154.4" x2="628.0" y2="180.7" stroke="#9aa4b2" stroke-width="1" opacity="0.25" />
<line x1="605.6" y1="154.4" x2="646.0" y2="210.1" stroke="#9aa4b2" stroke-width="1" opacity="0.25" />
<line x1="605.6" y1="154.4" x2="659.2" y2="242.0" stroke="#9aa4b2" stroke-width="1" opacity="0.25" />
<line x1="605.6" y1="154.4" x2="667.3" y2="275.6" stroke="#9aa4b2" stroke-width="1" opacity="0.25" />
<line x1="646.0" y1="210.1" x2="659.2" y2="242.0" stroke="#9aa4b2" stroke-width="1" opacity="0.25" />
<line x1="646.0" y1="210.1" x2="667.3" y2="275.6" stroke="#9aa4b2" stroke-width="1" opacity="0.25" />
<circle cx="670.0" cy="310.0" r="14" fill="#f97316" stroke="#475569" stroke-width="2" />
<circle cx="667.3" cy="344.4" r="14" fill="#f97316" stroke="#475569" stroke-width="2" />
<circle cx="659.2" cy="378.0" r="14" fill="#f97316" stroke="#475569" stroke-width="2" />
<circle cx="646.0" cy="409.9" r="14" fill="#f97316" stroke="#475569" stroke-width="2" />
<circle cx="628.0" cy="439.3" r="14" fill="#f97316" stroke="#475569" stroke-width="2" />
<circle cx="605.6" cy="465.6" r="14" fill="#f97316" stroke="#475569" stroke-width="2" />
<circle cx="579.3" cy="488.0" r="14" fill="#f97316" stroke="#475569" stroke-width="2" />
<circle cx="549.9" cy="506.0" r="14" fill="#f97316" stroke="#475569" stroke-width="2" />
<circle cx="518.0" cy="519.2" r="14" fill="#f97316" stroke="#475569" stroke-width="2" />
<circle cx="484.4" cy="527.3" r="14" fill="#f97316" stroke="#475569" stroke-width="2" />
<circle cx="450.0" cy="530.0" r="14" fill="#f97316" stroke="#475569" stroke-width="2" />
<circle cx="415.6" cy="527.3" r="14" fill="#f97316" stroke="#475569" stroke-width="2" />
<circle cx="382.0" cy="519.2" r="14" fill="#f97316" stroke="#475569" stroke-width="2" />
<circle cx="350.1" cy="506.0" r="14" fill="#f97316" stroke="#475569" stroke-width="2" />
<circle cx="320.7" cy="488.0" r="14" fill="#ef4444" stroke="#111827" stroke-width="2" />
<circle cx="294.4" cy="465.6" r="14" fill="#f97316" stroke="#475569" stroke-width="2" />
<circle cx="272.0" cy="439.3" r="14" fill="#f97316" stroke="#475569" stroke-width="2" />
<circle cx="254.0" cy="409.9" r="14" fill="#f97316" stroke="#475569" stroke-width="2" />
<circle cx="240.8" cy="378.0" r="14" fill="#ef4444" stroke="#111827" stroke-width="2" />
<circle cx="232.7" cy="344.4" r="14" fill="#f97316" stroke="#475569" stroke-width="2" />
<circle cx="230.0" cy="310.0" r="14" fill="#f97316" stroke="#475569" stroke-width="2" />
<circle cx="232.7" cy="275.6" r="14" fill="#f97316" stroke="#475569" stroke-width="2" />
<circle cx="240.8" cy="242.0" r="14" fill="#f97316" stroke="#475569" stroke-width="2" />
<circle cx="254.0" cy="210.1" r="14" fill="#ef4444" stroke="#111827" stroke-width="2" />
<circle cx="272.0" cy="180.7" r="14" fill="#f97316" stroke="#475569" stroke-width="2" />
<circle cx="294.4" cy="154.4" r="14" fill="#f97316" stroke="#475569" stroke-width="2" />
<circle cx="320.7" cy="132.0" r="14" fill="#f97316" stroke="#475569" stroke-width="2" />
<circle cx="350.1" cy="114.0" r="14" fill="#f97316" stroke="#475569" stroke-width="2" />
<circle cx="382.0" cy="100.8" r="14" fill="#f97316" stroke="#475569" stroke-width="2" />
<circle cx="415.6" cy="92.7" r="14" fill="#f97316" stroke="#475569" stroke-width="2" />
<circle cx="450.0" cy="90.0" r="14" fill="#f97316" stroke="#475569" stroke-width="2" />
<circle cx="484.4" cy="92.7" r="14" fill="#f97316" stroke="#475569" stroke-width="2" />
<circle cx="518.0" cy="100.8" r="14" fill="#f97316" stroke="#475569" stroke-width="2" />
<circle cx="549.9" cy="114.0" r="14" fill="#f97316" stroke="#475569" stroke-width="2" />
<circle cx="579.3" cy="132.0" r="14" fill="#f97316" stroke="#475569" stroke-width="2" />
<circle cx="605.6" cy="154.4" r="14" fill="#f97316" stroke="#475569" stroke-width="2" />
<circle cx="628.0" cy="180.7" r="14" fill="#f97316" stroke="#475569" stroke-width="2" />
<circle cx="646.0" cy="210.1" r="14" fill="#f97316" stroke="#475569" stroke-width="2" />
<circle cx="659.2" cy="242.0" r="14" fill="#f97316" stroke="#475569" stroke-width="2" />
<circle cx="667.3" cy="275.6" r="14" fill="#f97316" stroke="#475569" stroke-width="2" />
<text x="670.0" y="341.0" font-size="10" text-anchor="middle" fill="#111827">0000</text>
<text x="667.3" y="375.4" font-size="10" text-anchor="middle" fill="#111827">0001</text>
<text x="659.2" y="409.0" font-size="10" text-anchor="middle" fill="#111827">0002</text>
<text x="646.0" y="440.9" font-size="10" text-anchor="middle" fill="#111827">0003</text>
<text x="628.0" y="470.3" font-size="10" text-anchor="middle" fill="#111827">0004</text>
<text x="605.6" y="496.6" font-size="10" text-anchor="middle" fill="#111827">0005</text>
<text x="579.3" y="519.0" font-size="10" text-anchor="middle" fill="#111827">0007</text>
<text x="549.9" y="537.0" font-size="10" text-anchor="middle" fill="#111827">0008</text>
<text x="518.0" y="550.2" font-size="10" text-anchor="middle" fill="#111827">0009</text>
<text x="484.4" y="558.3" font-size="10" text-anchor="middle" fill="#111827">0010</text>
<text x="450.0" y="561.0" font-size="10" text-anchor="middle" fill="#111827">0011</text>
<text x="415.6" y="558.3" font-size="10" text-anchor="middle" fill="#111827">0012</text>
<text x="382.0" y="550.2" font-size="10" text-anchor="middle" fill="#111827">0013</text>
<text x="350.1" y="537.0" font-size="10" text-anchor="middle" fill="#111827">0014</text>
<text x="320.7" y="519.0" font-size="10" text-anchor="middle" fill="#111827">0015</text>
<text x="294.4" y="496.6" font-size="10" text-anchor="middle" fill="#111827">0016</text>
<text x="272.0" y="470.3" font-size="10" text-anchor="middle" fill="#111827">0017</text>
<text x="254.0" y="440.9" font-size="10" text-anchor="middle" fill="#111827">0018</text>
<text x="240.8" y="409.0" font-size="10" text-anchor="middle" fill="#111827">0019</text>
<text x="232.7" y="375.4" font-size="10" text-anchor="middle" fill="#111827">0020</text>
<text x="230.0" y="341.0" font-size="10" text-anchor="middle" fill="#111827">0021</text>
<text x="232.7" y="306.6" font-size="10" text-anchor="middle" fill="#111827">0022</text>
<text x="240.8" y="273.0" font-size="10" text-anchor="middle" fill="#111827">0023</text>
<text x="254.0" y="241.1" font-size="10" text-anchor="middle" fill="#111827">0024</text>
<text x="272.0" y="211.7" font-size="10" text-anchor="middle" fill="#111827">0025</text>
<text x="294.4" y="185.4" font-size="10" text-anchor="middle" fill="#111827">0026</text>
<text x="320.7" y="163.0" font-size="10" text-anchor="middle" fill="#111827">0027</text>
<text x="350.1" y="145.0" font-size="10" text-anchor="middle" fill="#111827">0028</text>
<text x="382.0" y="131.8" font-size="10" text-anchor="middle" fill="#111827">0029</text>
<text x="415.6" y="123.7" font-size="10" text-anchor="middle" fill="#111827">0030</text>
<text x="450.0" y="121.0" font-size="10" text-anchor="middle" fill="#111827">0031</text>
<text x="484.4" y="123.7" font-size="10" text-anchor="middle" fill="#111827">0032</text>
<text x="518.0" y="131.8" font-size="10" text-anchor="middle" fill="#111827">0033</text>
<text x="549.9" y="145.0" font-size="10" text-anchor="middle" fill="#111827">0034</text>
<text x="579.3" y="163.0" font-size="10" text-anchor="middle" fill="#111827">0035</text>
<text x="605.6" y="185.4" font-size="10" text-anchor="middle" fill="#111827">0037</text>
<text x="628.0" y="211.7" font-size="10" text-anchor="middle" fill="#111827">0038</text>
<text x="646.0" y="241.1" font-size="10" text-anchor="middle" fill="#111827">0039</text>
<text x="659.2" y="273.0" font-size="10" text-anchor="middle" fill="#111827">0040</text>
<text x="667.3" y="306.6" font-size="10" text-anchor="middle" fill="#111827">0041</text>
</g>
</svg>
